<svg xmlns="http://www.w3.org/2000/svg" width="593px" height="217px" style="shape-rendering:geometricPrecision;text-rendering:geometricPrecision;image-rendering:optimizeQuality;fill-rule:evenodd;clip-rule:evenodd"><path fill="#fefffe" d="M-.5-.5h180c.167 35.668 0 71.335-.5 107-1.418 11.409-6.918 20.243-16.5 26.5a18029.83 18029.83 0 0 0-160 83.5h-3v-65c58.973-30.154 117.973-60.32 177-90.5-58.999-.5-118-.667-177-.5v-61Z" style="opacity:.985"/><path fill="#fefefe" d="M203.5-.5h180c.167 37.002 0 74.001-.5 111-2.571 10.328-8.405 18.161-17.5 23.5-53.061 27.529-106.061 55.029-159 82.5h-3c-.333-21.677 0-43.344 1-65a21857.266 21857.266 0 0 1 176-90.5c-58.999-.5-117.999-.667-177-.5v-61Z" style="opacity:.986"/><path fill="#fefffe" d="M408.5-.5h184v61h-184v-61Z" style="opacity:1"/><path fill="#fefffe" d="M592.5 112.5v62a4559.18 4559.18 0 0 1-164-1.5c-9.259-3.591-15.425-10.091-18.5-19.5a302.475 302.475 0 0 1-1.5-41h184Z" style="opacity:.974"/></svg>