<svg xmlns="http://www.w3.org/2000/svg" width="722" height="283" overflow="hidden"><defs><clipPath id="a"><path d="M-281-28h722v283h-722z"/></clipPath></defs><g fill="#FFF" fill-rule="evenodd" clip-path="url(#a)" transform="translate(281 28)"><path d="M177.208-26.236c-.406-.346-.835-.614-1.359-.691-2.064-.43-4.111 1.079-7.239 3.607l-2.418 1.837c-8.527 4.597-15.038 26.183-16.485 35.05-.258.131-.453.256-.906.489C143.549 4.902 133.992-3.62 124-4.906c3.958 15.336 17.279 61.674 35.006 57.661 9.01-2.046 27.8-40.464 27.995-61.645v-.78c-.142-11.211-5.246-15.206-9.793-16.566ZM297.787 208.201c-22.492.943-29.956-.27-51.996 7.033-3.083.943-5.755 3.015-8.237 5.85.357 4.679-2.422 12.097 1.899 13.85.226.031.202.733.416 1.118 1.274 1.291 2.595 1.477 3.881 3.129.833 1.183 1.518-.126 2.387.366.41.421.625 1.165 1.059 1.243 2.161 1.028 4.155.625 6.303 1.682 1.089.883 2.185.697 3.268.871.654-.258 1.505 1.291 1.726 1.682 4.1 1.729 7.868.174 12.017.108 12.481-.192 10.13-1.429 22.605-1.634 10.511-.15 20.737 1.466 31.236 1.304 5.683-.193 11.868 0 17.546-.397 10.047-.601 20.117.967 30.182 1.087 5.035-.12 10.879 1.868 15.951 2.246 5.476 0 10.648-1.381 16.206-.276 1.733.145 3.495-.12 5.28.715 1.607.835 3.428 1.652 4.94 1.778 4.863.354 9.118-1.478 13.809-3.261 2.791-.847 5.6-1.334 8.136-2.943 1.279-.595 2.476-2.637 2.969-4.727 1.31-3.791 2.357-7.965.983-12.283-.245-.018-.893.3-1.12-.09-.488-.721-.363-2.481-1.059-2.541-2.023-.823-3.988-.991-5.999-1.465-2.673-.571-5.381-1.826-8.047-2.343-12.451-3.063-83.684-13.904-126.341-12.102ZM80.606 217.229c2.26.498 4.824.457 6.051 1.948 1.217 1.171-1.204 3.107-1.062 4.664-.047 3.701 1.348 7.046 1.3 10.753.071.618-.243 1.218-.943 1.883-.635.927-1.662 1.907-2.706 2.555-3.127 1.99-7.232 1.218-10.846 2.269-4.628 1.42-9.742 1.931-14.453 2.43-8.734.897-16.994-.944-25.834-1.212-3.34-.184-6.96.268-9.796 1.307-3.963 1.057-8.004.903-12.068.761-20.998-.761-41.61-1.2-62.53-1.04-3.661.143-7.672.618-11.34.748-16.808.939-33.581.648-50.402 1.094-5.874.148-11.73.315-17.616.16-3.299.077-6.598.148-9.516.22-12.425.636-25.187 1.224-37.677.707-4.758.042-9.873.095-14.655.13-13.89.737-28.047 3.025-42.031 2.228-10.295-.546-19.96-2.905-29.406-7.758-6.419-3.333-11.445-7.92-15.076-13.451 2.397-3.119 6.016-4.36 9.992-5.323 9.356-2.554 18.072-4.176 27.494-5.775 7.987-1.342 15.29-1.995 22.962-2.685 100.652-9.012 213.408-5.656 257.391-2.708 14.792.998 28.55 2.946 42.767 6.095ZM261.879 122.883v1.157c.89 2.314 2.675 2.907 4.46 4.639h5.834c0-1.163 1.346 0 1.346-1.163 1.352 0 3.327-.569 4.287-2.308h.949c.972-1.755 2.407-2.942 4.329-2.942 2.395-2.895 4.785-5.802 7.192-8.703 0-1.174.475-2.325 1.423-2.925 1.453-5.214 2.396-11.028 4.809-16.284 0-1.726.949-4.058.487-5.808.462 0 .937 0 .937-.575-.475-2.356.948-3.507 1.921-4.657.96 0 1.897 0 2.395-1.17V81c2.384 0 5.094 1.744 6.979 4.045h3.161c0 1.194.629 1.194 1.269 1.775 2.514 0 8.059-.581 10.608.563 0 1.744 2.52 1.17 3.149 2.92.617 1.737.617 3.475 1.897 5.238 0 .57 0 1.139-.646 1.75 1.269 1.726 2.514 4.638.646 6.371.617 2.337 0 5.25 1.251 7.588-1.251 1.144-.628 2.906-.628 4.069 1.245 2.314 1.245 5.233 1.903 8.146 2.502 2.894 1.886 6.4 3.789 9.302v3.458c1.246 0 0 1.774 1.246 1.774.628 3.506-1.246 7.57-1.246 11.076a48.427 48.427 0 0 0-1.897 1.744v1.151c-.647 0-1.263 0-1.263-.599-1.287 1.756-3.149 2.919-4.43 4.663-1.251-.582-1.879.581-2.52.581-1.251 0 0 1.744-1.251 1.744-1.281 0-2.549.581-3.172 1.163-1.275.581-5.556-.587-6.807.581l-.623-.581c-.634.581-1.269 1.163-2.538 1.163 0-.588 0-1.163-.623-1.163-.64 1.738-3.403 2.919-5.046 2.331-.551-1.163-.332-2.013-1.767-2.553-.474-3.668-.474-6.833-2.395-9.98.462 0 .462-.521.462-1.042-.462-1.582-1.411-3.158-1.411-4.729-1.459-2.122-1.933-5.244-3.831-6.821.486-.539-.978-1.06-.504-1.588-.931-1.031-1.417-1.57-2.389-2.619-.937 0-.937.533-1.424 1.049-.486 2.619-2.881 4.729-3.367 7.354l-.463-.522c-.486 1.571-1.921 2.62-1.921 4.208-.949.503-1.447 2.086-2.372 2.607v1.061c-3.368 3.135-5.2 8.229-9.215 10.423-1.002 2.199-3.54 2.637-4.536 5.088-1.518 0-3.89.606-5.757 1.211-1.264-.612-3.137-1.852-4.389-.612 0-.605-.646-.605-1.251-.605l-.616.605c-1.263-1.24-3.119 0-5.005-.605-3.783-3.081-8.159-4.297-12.53-6.737-1.274 0 0-1.84-1.274-1.84-.629 0-1.228 0-1.862-.599 0-1.846.634-3.075-1.257-4.291l.628-.612c0-.599-.628-.599-1.239-.599-.634-3.686-2.508-6.748-3.119-10.399-.67-.617-.67-.617-1.263-1.229 0-1.846-.616-3.656-1.274-4.89-.624-2.44 1.559-4.49.343-6.833 0-.551 0-1.157.617-1.72-.617-2.919 0-4.669.599-7.576-.599 0-.599-.563-.599-1.157 1.192-2.307 1.192-4.669 1.192-6.982.575-1.745 1.766-3.476 2.365-5.239l-.599-.575c1.193-1.163.599-2.9 2.402-4.075 0-.588 0-1.151-.599-1.151 0-1.18 1.192-1.75 1.779-2.344.599-1.169 2.911-5.736 4.346-6.623l-.456-.69c1.038-1.504 3.73-2.121 5.841-2.319 1.606-.144 4.654 1.439 5.55 1.937.676 1.378.041 2.457.925 4.207h.901v1.168c0 .582.439.582.878.582.451 1.738 1.358 3.47.895 5.233 0 .575.457.575.913.575-.456 1.162.89 2.337.89 3.5-.89 1.138 0 2.907-.457 4.657 1.352 2.895.913 6.389 2.236 9.296-.006 2.331.901 4.663 1.802 6.425ZM30.937 144.405s2.335 1.55 2.957 2.664c.628 1.125 1.855 2.537 2.726 2.885a23.88 23.88 0 0 1 2.447 1.202l.782 1.622 1.95 1.826c2.063.629 2.478-.611 4.054 1.58.681 0 1.375 0 1.375.611l.693-.611c.682 1.227 2.069 1.837 2.762 2.46 2.068 0 3.834.766 5.238 1.981.67 0 .777 1.419.777.814 2.11.569 3.526 1.987 4.919.73.675 0 1.369 0 1.369.623l.663-.623c1.393-.598 1.7 1.054 3.076.443.705 0 .705.611.705 1.233h1.357c1.38 1.245 7.248-.401 8.635.856 7.792 1 20.498-.826 20.498-.826.066-1.203 1.974.09 2.039-1.095l.64.604c2.595.736 5.351-2.286 7.941-.993.693-.545.693-.545 1.381-1.113 1.321-.533 3.218 1.927 4.604.227-.035.593.623.622 1.275.647.047-.599.047-.599.053-1.18 2.038-1.083 4.533-.814 6.033-2.442.669.066 1.961.186 2.625.275l1.44-1.053c3.408-.82 6.388-3.537 10.252-4.429.61-.647 1.932-.766 2.483-2.017a28.366 28.366 0 0 1 1.974-.155c.586-.641 1.203-1.317 1.778-1.94 2.038.389 3.804-2.4 5.748-2.693-.094-.569-.183-1.179.451-1.275l.752.491c1.221-.82 1.221-.82 1.665-2.077 2.033.269 3.141-2.262 4.244-3.639.657-.084.657-.084 1.303-.174.551-.694.551-.694 1.109-1.382.651-.102.651-.102 1.327-.228 1.742-1.478 2.75-3.424 5.25-4.417-.089-.581-.213-1.167.457-1.299 1.404.389 1.102-1.37 1.641-2.046.57-.401 2.305-1.647 2.756-1.084-.095.982 1.695-2.514 1.612-1.562.462.581 2.72-5.363 3.248-5.77l-5.476-14.448c-2.033 2.879-9.209 12.365-13.061 13.251.059 3.028-3.295 3.178-5.583 4.932.124.557.284 1.149-.373 1.299-1.927.443-2.756 2.609-4.036 2.884-.137-.568-.788-.419-1.434-.269-.51.724-1.772 1.012-2.146 2.329-1.932.436-2.5 2.364-3.615 3.705l-.741-.462c-2.31 2.143-5.676 1.922-7.271 4.567-3.727 1.766-6.903 2.376-10.768 3.837-.646.048-1.303.089-1.351-.527-.574 1.233-3.271.246-3.84 1.46-3.982.27-7.295-.125-11.189.749-.1-1.167-2.002.125-2.068-1.03-3.236 1.401-6.519-.449-9.82-.449-.657-.61-1.973-.61-2.637-1.771-3.289.586-5.274 0-7.26-1.784-1.978 0-3.306-1.795-5.273-2.37v-1.167c-.653-.605-.653-.605-1.334-1.179 0-1.778 1.98-1.778 3.3-2.37 1.328-1.766 4.89-1.359 6.2-3.137 0-.598 1.778-1.748 1.778-2.334.645-1.185 1.108-2.316 1.766-2.316 1.985-1.18.687-2.562 3.33-3.136 0-.605 2.074-2.053 1.393-2.658 2.643-1.765 2.59-2.789 3.26-6.344 1.303-1.748 3.258-3.693 3.258-6.076.652-.58-.153-3.153 1.174-3.752.646-4.124-1.043-6.339-1.043-10.468l-1.328-1.173c0-1.796-1.321-2.963-.651-4.735-1.974-1.79-1.488-2.352-3.473-4.118l-1.132-1.203H91.23c-.657-1.191-2.637-1.765-2.637-2.974-2.637-.581-5.274-2.347-7.893-3.544l-.676.605-.67-.605c-.645.605-.645.605-1.327 1.197 0-1.801-1.968 0-2.62-1.197-1.333 0-2.654-.604-3.958.605-3.959-1.203-8.237.874-12.202-.88 0 1.179-2.637-.605-2.637 1.179-1.315.58-3.236.539-3.876 1.096h-1.991c-1.997 1.783-3.639 3.866-7.58 3.866-1.321 0 0 1.76-1.321 1.76h-1.316c-3.307 2.962-5.932 6.523-9.89 8.882 0 .598-1.334 1.167-.664 2.364 0 .61-.67.61-1.34.61 0 1.155-.64 1.754-1.309 2.352 0 .6 0 1.185.663 1.185 0 .6-1.007 2.095-1.659 2.095-.658 2.371-.658 4.758-2.643 5.92 0 4.734-1.375 7.009-1.683 12.21.462 2.747.688 6.925.688 9.385 2.062 1.257-.505 1.184.865 3.034.681 0 .32 1.06.32 1.688.681 1.233 2.88 2.119 2.169 3.37 0 .616 1.15 1.167 1.83 1.167.7 1.227-1.007 2.598.38 3.214 0 .61 2.193.132 1.493 1.359l1.192 2.669Zm42.994-38.527c-1.327.622 0 1.873-1.327 2.496l.67.616c-.51 5.082-3.657 11.989-10.668 16.891-.651 0-1.333 0-1.333-.623 0-1.269-1.357-3.13-.658-4.381 0-.617-.706-.617-1.351-.617 1.351-1.256-.901-2.507-.196-4.392-.705 0-.705-.611-.705-1.246 2.015-1.25.38-4.459 2.388-5.692l-.657-.64c.657-1.239 1.7-3.178 2.998-4.453v-1.245c2.679-2.496 6.163-3.603 9.506-4.812.67 0 1.327 0 1.327.587 2.01 2.531.676 5.003.006 7.511Z"/><path d="M189.044 100.1c.077.822.172 1.626.256 2.417 4.536 4.394 3.65 11.883 6.664 17.242-1.438 1.863-.422 4.185-1.04 5.918l1.772 1.405c-1.201 4.274 1.665 8.019 1.267 12.186-.744.911-.744.911-1.464 1.828.078.804.179 1.614.975 1.53l-.713.899.874.72-.725.917c.797-.125.891.691.969 1.536-1.439 1.786 1.213 3.942-1.034 5.847.897.714.963 1.53 1.04 2.357-2.241 1.917-.868 5.418-2.45 7.937l.833.767-.785.881-.85-.791c-.809.041-.779.869-.755 1.667.838 1.59 2.497 3.125.915 4.858l.832.75c-2.401 1.768-3.115 3.846-3.81 6.222-.744.815-.744.815-1.487 1.637.791.756.821 1.512.821 2.31-1.469 1.637-2.206 3.238-3.669 4.881 0 .774.815 2.316-.696 3.15l.791.756c-.755 1.614-1.433 3.977-2.146 5.603.755-.054.761.726.761 1.5-2.23 1.69-4.804 3.476-3.972 6.555-1.444 2.422-3.33 3.238-4.804 5.673.803 1.5-2.646 2.221-2.61 3.781.018 1.554-2.248.916-1.451 2.411l.773.756c-.755.066-.755.066-1.48.095-.761 1.601-.761 1.601-2.23 2.447.006.78.036 1.584-.737 1.613-1.338 1.019-2.01 2.227-3.46 3.871.772.755-2.42 2.369-1.689 2.417-.832.714-1.641 1.482-1.796 3.018-.743-.036-1.504-.054-1.581.696l.047 1.013c-.535.547-.672.536-1.783.791-5.892 6.746-14.508 9.395-20.43 16.099-1.599.732-3.163 1.422-4.738 2.137-1.606.685-1.064 3.043-2.474 2.179.078-.768-2.027.679-2.783.649-1.67 1.483-4.126.381-5.666.298.072-.762-.826-.595-1.516-1.399l-.832.732c-.666-.828-2.384-2.399-3.145-2.453-.672-.792.821-1.619.065-1.649l.85-.756c.066-.756-1.201-.947-1.95-.988-1.367-1.632 1.54-.399.928-2.03l-2.955-.233c-.702-1.542-2.152-1.578-2.771-3.179.137-1.518 3.454-1.488 3.591-3.072 1.51.095 1.064-.143 2.664-.869l-.565-1.107c1.611-.745 1.362-2.061 2.105-2.03-.036.779.588-.12 1.325-.072.762.041 1.505.072 1.606-.697.059-.785.125-1.565.963-2.31.743.066.743.066 1.511.096 3.281-2.977 1.183-.995 4.566-4.739.059-.775.059-.775.136-1.549.815-.738.952-2.285 2.557-3-.077.786-.178 1.554.618 1.602 2.385-1.453.946-2.304.345-3.87.827-.774.827-.774 1.659-1.477-.089.78 1.255.173.511.131-.071.78.791-1.81 1.546-1.774 1.861-2.882.505.518 3.282-4.822.577-.59 1.998-1.119 2.128-1.512-.16-.072 1.766-.757 1.083-1.572-.107-.619.184-.875-1.392-.155.904-1.524 3.544-3.81 3.681-5.376 2.194.899.446-2.607 1.956-2.542-.821.72-1.582-.768-1.558.011l2.509-.071c1.671-1.476-2.319-1.411-.832-3.078-.018-.768-.244-1.208-.987-1.167-.042-.78-.214-1.417.541-1.458l.773.744c.731-.822-.719-3.447.767-4.31-.012-.78-.012-1.572-.036-2.364 2.236-1.655 1.231-1.382 1.92-3.769l-.76-.732c.011.768 1.623-.726.868-.691-.024-.809-.024-.809-.024-1.589 1.493-.857 2.533-6.049 2.491-7.615.036 1.572-1.76-3.572-.237-2.857 2.187-3.275.695-7.597 1.04-11.58-1.588-.584 1.225-1.721.351-3.161-.744.071-1.499.172-1.594-.608.684-.869.684-.869 1.326-1.768-.065-.756-.143-1.536-.886-1.435-.071-.78-.131-1.577.606-1.648-.112-.78-.166-1.549-.921-1.459.666-.882.666-.882 1.35-1.757-.083-.773-.832-.684-1.576-.565.44-3.239-2.783-5.561-1.611-8.835-.731.077-.815-.685-.892-1.483 2.009-2.613-.737-5.757.518-8.281-1.564-.578-.964-2.245-1.142-3.81.678-.864-1.261-1.637-1.344-2.406-1.903-3.703-1.356-6.65-2.581-10.597-1.48 1.346-2.568-10.877-3.864-15.622-1.95-3.054-.66-6.502-1.813-9.657.802-.095 1.623-.19 1.551-1-1.064-2.334 1.284-3.465 1.837-5.983 1.623-.202 3.134-1.227 4.935.196 1.529-.994.583-2.524.482-3.334 3.223-.386 5.655-.72 8.895-1.119.083.816.148 1.631.969 1.53 2.414-.316 3.401 1.19 5.815.899.089.828.155 1.638.98 1.548 1.594-.214 2.486.488 3.39 1.215.808-.108 1.623-.21 1.528-1.007l.891.68.732-.888c.88.715 1.67.613 2.485.488.898.727 1.142 3.15 2.693 2.161 3.877 6.097 8.521 11.276 11.583 17.474ZM-167.363 114.809c-.266-1.302-2.143-1.676-2.9-1.693-.793-.012-2.244 1.616-2.983.337 0 0-1.279 2.078-2.836 3.179-1.047.752-2.651.634-2.651.634-.385 1.977-.598 2.196 1.142 6.826.787.148 1.604 4.576 2.468 4.784-.366-1.706 2.285 3.664 3.143 4.416l1.089.284c.545.142.279.646.036 1.113l2.415 1.705c.243.646.758.841.19 1.765 1.846.124 3.012 1.231 4.557 1.906.533.23.202.669-.1 1.13.503.207 1.012.439 1.343 0 1.332 0 .379 1.356.581 2.001l.828-.212c.19.662 1.219 1.112 1.219 1.112 1.611 2.445 9.454 5.429 11.407 7.65l.769-.373c.616 1.272 4.067 1.509 4.067 3.166l.722-.437c.367.603 5.552 1.586 6.991 2.356.722-.45-.308-1.214.479-1.598.859.722 2.652 2.361 3.481 3.125 0 0 2.243.166 3.841.539 2.013 2.131 6.145.817 8.607 1.912.325.633.841.77 1.361.888l.788-.391.314.616c1.526-.781 2.361-.03 3.379-.905l.314.627.757-.409c.309.628.309.628.604 1.279 2.143.468 4.085 1.469 6.387.296.296.628.853.752 1.368.864.763-.396.763-.396 1.556-.763 1.604.355 1.9.983 3.765.847l.29.615c2.315-1.148 3.919-.817 6.055-.331.468-1.007 1.61.379 2.072-.652l.302.64c1.782-1.303 4.528-.622 6.375-.699l.284.645c.787-.372.474.054.474.054 1.557-.722 5.333-.781 6.345-1.629 2.149.557 2.066.96 4.984.575.598.137 1.8.403 2.356.586 2.386-1.574 4.451-1.527 6.493-.361 2.356-.45 6.115-2.291 8.17-3.375.585.16 1.195.344 1.78.516.889-.326 1.469-.131 2.073-1.114 2.64-.905 4.546-1.823 6.925-3.421.272.669 1.764-.586 2.054.041.296-.462.296-.462.598-.953 1.166.361 2.054-1.107 3.226-.752.313-.467.313-.467.604-.953 1.787-.616 1.083-1.071 2.841-1.664 1.521-1.036 3.652-4.588 7.12-6.11-.082-1.142 2.203-1.764 2.712-2.764.248-.503.858-.373 1.45-.261l-.338-.627c.841-.385.598-2.043 1.397-1.309.225-.503 1.232-1.829.74-1.923 1.688-1.327 1.664-5.643 4.156-6.187.219-.533.219-.533.432-1.018.989-1.327.603-3.789 1.166-4.115.195-.492-.077-.853.444-.722.633-1.99 1.107-5.009 1.693-7.685-.503-.113-.267-.615-.054-1.124.498.112.717-.398.948-.895-.504-.124-.284-.651-.071-1.149l.722-.378c-1.019-.231.136-1.61-.882-1.841l.698-.409c-.864-2.433.385-4.902-.467-7.323l.656-.397c-1.177-1.379-.976-2.841.042-4.28-.361-.634-.178-1.143 0-1.67-1.373-.858.296-1.77-.556-2.534.497-1.527-1.214-3.042-.184-4.481-.674-1.267-.81-1.8-1.545-3.031.142-.545.29-1.072.444-1.598-.509-.107-1.036-.214-.911-.74.822-.954-.077-1.67.23-2.73-1.035-.195-.485-1.09-.84-1.7-.332-2.835-1.078-4.972-2.759-7.388.699-1.041-.74-5.168-.675-6.464l-1-.534c-.432-1.32-.905-2-1.9-2.693.048-.645.048-.645.083-1.29-.515-.036-1.03-.06-.983-.717.03-.627.03-.627.066-1.29l-.575.615c-.959-.693-1.385-1.99-1.313-3.315-1.906-2.682-2.629-4.612-5.34-8.513-1.066.645-.047-2.02-1.326-1.416-1.462-3.309-2.42-4.114-4.581-6.145.083-.639.083-.639.124-1.302-.598-.018-.598-.018-1.184-.047-.603 0-.527-.663-.462-1.309-3.397-2.084-15.443-3.765-17.29-7.08-1.053-.06-2.071-.734-2.693.574-.473-.687-.473-.687-.947-1.355-2.817 1.858-5.18-1.475-7.784-2.203l-.568.616c-.912-1.972-2.652-.072-3.723-.084-.45-.68-.995-.716-1.516-.728-2.764 1.22-5.303-.16-7.677 3.044l-.485-.675 6.002 11.2c-.136.61 1.545 7.585 3.143 11.083.545.101 1.237 1.362 1.616 2.09-.142.604-.142.604-.266 1.237.805 1.451 1.604 2.89 2.397 4.364-.545-.125-.681.479-.817 1.113.64 2.06.622 4.292 1.243 6.293.847.746-.136 1.196.787 2.137.089.095-.562 1.308-.432 1.367-.373 1.02.267 2.232.267 2.232.308 2.232.19.462 1.746 2.06-1.439 1.718.976 4.524-.462 6.223.775.805.8-.332 1.054.302-.26.456-.26.456-.51.918-.242.467.244.64.747.84.497 1.255-.409 2.001.254 3.215.503.124.041 1.67.545 1.782.16 1.142 1.592 1.48.218 2.273-.497-.13-.218 2.143-.74 3.665.327.604.007 3.209-.159 3.73.515.118.864-.504.68 0-.177.503-.177.503-.354 1 .514.113.462 1.042.266 1.539-.024 1.617-1.06 2.446-1.58 3.937-.593 3.268 1.112 5.92-1.107 7.087.799.716-.184 1.586-.409 2.108-.734.343-.538 1.93-1.208 2.326-.828 2.001-1.225 1.883-2.047 3.878-1.344.781-1.569 1.646-2.9 2.427-.214.492-.214.492-.421.983-.196.503-.663.379-1.119.29-.87.9-3.93 2.303-4.356 3.262l.26.622c-1.817.669-2.344.894-4.362 2.06-1.995 1.19-3.481 1.202-5.559 2.267-1.823-.509-3.373.835-5.191.32-.704.373-1.391.752-2.095 1.072-.918-.249-2.28.467-2.972-.267-.905-.23-.716 1.445-1.61 1.214-.45-.136-.45-.136-.905-.266l-.214-.61c-1.397.728-2.515-.142-3.906.562l-.219-.586c-1.386.704-2.54-.083-3.421.823-1.167-.799-3.7-.823-5.748-.669.183-.509-.267-.598-.74-.669l-.669.426c.207-.515-3.913-.225-4.368-.278l-.942-.177-.284-.604-.651.414c-.746-.657-5.67-1.155-6.843-2.439-.94.888-1.835.497-2.9.278-4.398-.278-9.761-2.22-10.305-2.338l-.32-.645c-1.527.775-4.066-.048-4.729-1.279-.545-.125-1.279-.19-1.812-.355-.568-1.303-4.042-1.055-4.474-2.351 0 0-1.741-1.208-2.481-2.096-1.136.699-3.984-2.711-4.516-2.936l-1.906-.071-.681-2.055-2.569-1.923c-1.054-1.93-2.101-.415-2.439-2.049Z"/><path d="M-126.952 40.043c.726.018 1.445.059 2.123.106 3.42 3.465 10.163 2.457 14.617 4.68 1.785-1.274 3.723-.514 5.346-1.103.542.695.542.695 1.077 1.39 3.919-1.154 6.024.79 9.752.525.922-.572.922-.572 1.838-1.167.696.089 1.386.195 1.19.82l.91-.578.499.725.91-.56c-.22.642.487.742 1.189.784 1.808-1.114 2.92.4 5.001-1.308.464.76 1.16.86 1.861.972 2.076-1.72 2.813.082 5.353-.737l.44.772.921-.495-.41-.79c.244-.636.927-.47 1.612-.33 1.123.943 1.89 2.346 3.824 1.468l.386.784c1.201-.837-8.07-1.25 6.393-1.704.927-.406.927-.406 1.849-.824.363.76.999.943 1.653 1.113 1.844-.825 3.396-1.06 5.251-1.874.648.154 1.653 1.102 2.855.118l.362.731c1.582-.2 3.783-.289 5.328-.495-.25.578-1.04-.819-.428-.542 2.23-1.114 4.633-2.428 6.72-.79 2.468-.265 3.55-1.497 6.036-1.68.814 1.162 2.807-1.119 3.99-.483 1.166.584 1.207-1.043 1.98.136l.209.837c.369-.49.369-.49.743-1.031 1.523.117 1.523.117 2.813-.596.577.33 1.154.678 1.528.148 1.362-.542 2.57-.542 4.424-.937.214.878 1.547-.407 1.202.124.915-.224 1.873-.396 3.015.264.357-.524.737-1.054 1.314-.718l.678.506c.654-.1.714-.206 1.475-.8 7.718-.685 12.018-4.415 19.684-4.415 1.343-.613 2.705-1.202 4.037-1.809 1.333-.607 2.551 1.026 2.807-.347-.541-.378 1.576-.908 1.98-1.391 1.88-.2 3.045-3.436 3.812-4.473-.559-.371.03-.848-.13-1.744l.921-.147c-.184-.873-.356-4.544.012-5.069-.167-.86-1.505-.306-1.142-.836l-.333-.613c-.547-.371.167-1.303.542-1.797-.363-1.774-1.98.223-2.742-1.032l1.41-2.063c-.649-1.255-3.498-1.991-4.598-2.733-.76 1.054-.701.63-2.021 1.296l-.447-.978c-1.331.7-2.105-.142-2.48.359.548.348-.368.306-.737.807-.398.525-.76 1.05-1.32.666-.559-.353-1.118-.713-2.046-.56-.38.543-.38.543-.749 1.026-3.728.624-12.15.83-12.993-.307-.934.219-.934.219-1.856.454.6.306-.487.99-.13.436.594.318-1.695-.306-2.04.253-2.98-.029-9.539.637-8.254-.123-1.511-.07-4.454.719-5.626.112-.44 1.92-2.54-1.084-3.175 0 .927-.242-1.172-.372-.565-.094l.07.76c-1.867.566-1.98-1.161-3.834-.501-.63-.26-.899-.572-.595-1.108-.625-.23-1.053-.595-1.35-.012l.297.784c-.928.342-2.492-1.526-3.717-.666-.63-.242-1.225-.49-1.86-.73-2.136 1.195-4.437 1.137-6.655 1.314l-.422-.737c.642.135-1.077 1.161-.827.566-.66-.148-.66-.148-1.32-.277-1.13 1.06-5.816 1.025-7.125.719 1.315.306-2.646-2.252-2.402-.926-3.319 1.273-7.112-.636-10.632-.666-.215-1.343-1.695.873-2.814.047.22-.612.435-1.219-.214-1.343-.88.489-1.528.283-2.402.801-.654-.07-1.35-.159-1.13-.772-.678-.076-1.362-.152-1.552.425-.666-.083-1.344-.171-1.148-.76-.856.494-1.742 1.16-2.587 1.697-.666-.041-.499-.66-.333-1.273-2.89.4-4.531-2.18-7.582-1.197.16-.583-.487-.642-1.195-.706-2.533 1.667-6.131-.142-8.48 1.037-.398-1.238-1.915-.637-3.276-.649-.827.59-1.363-.925-2.028-.936-3.141-1.297-5.805-.655-9.194-1.391 1.302-1.29-9.432-1.344-13.547-2.075-2.569-1.372-5.727-.088-8.42-.807-.155.654-.303 1.332-1.017 1.32-1.987-.701-3.17 1.273-5.447 1.91-.304 1.32-1.76 1.95-1.362 3.087-1.005 1.314-1.136 1.538-1.85 1.52-.6 2.652-1.058 2.376-1.748 5.004.714.07 1.427.082 1.249.737-.535 1.956.713 2.716.178 4.684.708.042 1.446.077 1.243.73-.333 1.327.196 2.005.738 2.706-.185.654-.358 1.314-1.065 1.285l.523.689-.88.613c.548.7.375 1.35.19 2.003.535.684 2.659.808 1.624 2.086 4.971 2.911 9.087 6.442 14.248 8.669Z"/></g></svg>