<svg xmlns="http://www.w3.org/2000/svg" xml:space="preserve" width="304.39993" height="300" x="0px" y="0px" viewBox="0 0 304.39993 300"><g fill="#fff"><path d="M150.405 395.309h5.972l1.358 1.359v2.666l-.544.557.966.98v2.488l-1.469 1.469h-6.283zm5.018 3.984.489-.49v-1.469l-.476-.477h-3.223v2.436zm.326 3.985.586-.586v-1.332l-.586-.584h-3.535v2.502zM162.196 403.25h2.666l.692-.693v-7.25h1.851v7.888l-1.632 1.633h-4.488l-1.632-1.633v-7.888h1.85v7.25zM171.375 403.25h2.816l.461-.463v-1.578l-.448-.447h-3.603l-1.47-1.469v-2.515l1.47-1.469h4.297l1.469 1.469v1.373h-1.824v-.817l-.448-.447h-2.693l-.449.447v1.401l.449.449h3.604l1.47 1.469v2.679l-1.496 1.496h-4.406l-1.469-1.468v-1.362h1.821v.803zM180.501 395.307h1.686l3.482 9.521h-1.877l-.775-2.109h-3.346l-.775 2.109h-1.877zm2.108 5.89-1.266-3.617h-.026l-1.224 3.617zM192.685 395.309h1.782v9.519h-1.659l-4.243-6.447h-.027v6.447h-1.782v-9.519h1.659l4.243 6.459h.027zM207.618 395.309h1.712v9.519h-1.781v-5.795h-.026l-2.191 4.461h-1.141l-2.176-4.461h-.027v5.795h-1.782v-9.519h1.713l2.829 6.146h.027zM213.084 399.279h4.638v1.538h-4.638v2.447h5.032v1.564h-6.881v-9.519h6.881v1.562h-5.032zM226.466 396.871h-2.843v7.957h-1.849v-7.957h-2.842v-1.562h7.534zM235.169 401.672v3.156h-1.851v-2.734l-.815-.912h-2.964v3.646h-1.85v-9.521h5.971l1.455 1.471v2.883l-.926.938zm-5.63-2.012h3.277l.476-.477v-1.85l-.476-.475h-3.277zM236.869 403.264v-6.393l1.563-1.563h4.896l1.564 1.563v6.393l-1.564 1.564h-4.896zm5.481-.014.693-.693v-4.979l-.693-.693h-2.938l-.693.693v4.979l.693.693zM246.661 395.307h5.971l1.455 1.471v3.332l-1.47 1.48h-4.105v3.238h-1.851zm5.127 4.734.476-.477v-2.23l-.476-.475h-3.277v3.182zM255.446 403.264v-6.393l1.563-1.563h4.896l1.563 1.563v6.393l-1.563 1.564h-4.896zm5.48-.014.693-.693v-4.979l-.693-.693h-2.937l-.694.693v4.979l.694.693zM271.846 404.828h-6.608v-9.519h1.849v7.955h4.759zM273.071 395.309h1.849v9.52h-1.849zM283.746 396.871h-2.842v7.957h-1.85v-7.957h-2.842v-1.562h7.534zM286.411 395.307h1.687l3.481 9.521h-1.877l-.774-2.109h-3.347l-.774 2.109h-1.876zm2.109 5.89-1.265-3.617h-.027l-1.224 3.617zM298.596 395.309h1.782v9.519h-1.659l-4.243-6.447h-.026v6.447h-1.783v-9.519h1.66l4.242 6.459h.027zM313.733 396.844v1.455h-1.851v-.773l-.638-.641h-2.72l-.694.695v4.977l.694.693h2.72l.638-.638v-.776h1.851v1.455l-1.537 1.537h-4.652l-1.563-1.564v-6.393l1.563-1.564h4.652zM315.228 395.309h1.85v9.52h-1.85zM325.904 396.871h-2.843v7.957h-1.849v-7.957h-2.843v-1.562h7.535zM330.568 399.211l2.271-3.902h2.027l-3.387 5.629v3.888h-1.849v-3.888l-3.386-5.629h2.026l2.27 3.902zM115.185 375.938l21.255-21.255L118.758 337H68v67.842h50.759l18.078-18.078zm17.174-21.255-19.895 19.894-39.256-19.628 44.561-14.852zM71.255 339.89h38.007l-38.007 12.669Zm0 17.312 41.777 20.888h.001l17.228 8.615.002.002-59.008 14.75zm46.306 44.749H81.173l48.52-12.127zM178.394 369.513v-18.961h-4.76v5.813h-16.586v-5.813h-4.759v16.291l2.671 2.67zm-21.346-9.012h16.586v4.917h-16.586zM167.72 377.112h16.113v-4.137h-37.15v4.137h16.278v10.562h4.759zM217.178 364.362h5.483v-4.134h-5.483v-9.676h-4.717v27.722h4.717zM218.008 387.674v-4.137h-21.386v-8.679h-4.759v10.144l2.672 2.672zM238.588 359.605h-4.759v7.253h-8.425v4.094h27.229v2.066h4.717v-9.528h5.48v-4.134h-5.48v-8.804h-4.717v16.306h-14.045zM297.988 387.674v-10.615l-2.67-2.672h-24.762v4.137h22.674v9.15zM330.144 350.552h4.718v37.122h-4.718z"/><path d="M227.742 351.922v4.095h16.013v9.093h4.718v-10.517l-2.67-2.671zM244.082 373.242c-8.791-.016-14.076 2.629-14.086 7.613-.01 4.988 5.268 7.65 14.057 7.668 8.791.018 14.076-2.627 14.086-7.613.01-4.988-5.268-7.65-14.057-7.668m-.024 11.209c-5.802-.008-9.285-1.252-9.278-3.58.006-2.328 3.495-3.564 9.299-3.557 5.801.008 9.284 1.252 9.277 3.582-.006 2.327-3.495 3.563-9.298 3.555M284.754 367.52h8.517v5.596h4.718v-22.563h-4.718v4.36h-8.686c-1.856-2.291-4.76-3.691-8.188-3.691-5.987 0-10.378 4.267-10.378 10.101 0 5.834 4.391 10.102 10.378 10.102 3.534-.002 6.51-1.489 8.357-3.905m8.517-8.597v4.585h-6.712a10.96 10.96 0 0 0 .217-2.187c0-.835-.093-1.636-.264-2.398zm-22.545 2.398c0-3.404 2.399-5.895 5.672-5.895 3.273 0 5.672 2.49 5.672 5.895 0 3.405-2.399 5.896-5.672 5.896-3.273 0-5.672-2.49-5.672-5.896M305.221 381.133l9.343-10.518 9.343 10.518 3.588-3.189-10.426-11.738v-14.882h-4.992v14.864l-10.445 11.756zM195.629 351.324v8.436l-10.534 8.996 3.117 3.65 9.913-8.465 9.914 8.465 3.118-3.65-10.535-8.996v-8.436z"/></g><path fill="#fff" d="m208.654 172.185 93.995-93.99L224.459 0H0v300h224.458l79.942-79.942zm75.944-93.99-87.976 87.968L23.03 79.37 220.08 13.7ZM14.394 12.78h168.068L14.394 68.803Zm0 76.554 184.74 92.368h.004l76.183 38.095.01.01L14.393 285.03zM219.16 287.216H58.25L272.81 233.59Z" style="stroke-width:4.42205"/></svg>