<svg xmlns="http://www.w3.org/2000/svg" width="740" height="406" overflow="hidden"><defs><clipPath id="a"><path d="M17 122h740v406H17z"/></clipPath><clipPath id="b"><path d="M18 123h738v404H18z"/></clipPath><clipPath id="c"><path d="M18 123h738v404H18z"/></clipPath></defs><g clip-path="url(#a)" transform="translate(-17 -122)"><g clip-path="url(#b)"><g fill="#FFF" clip-path="url(#c)"><path d="M183.058 1529.491c.36-.34 44.6-43.73 44.6-43.73s44.252 43.39 44.611 43.73h32.019l-44.13-45.13h36.224v-21.4H158.936v21.4h36.228s-42.175 43.13-44.129 45.13h32.023ZM-15.897 1462.961l-40.216 104.38h22.977l26.787-69.36 26.785 69.36h22.98l-40.22-104.38ZM96.116 1567.341h22.97v-104.38h-22.97v104.38ZM55.81 1494.211a13.988 13.988 0 0 0-10.793-5.07c-7.722 0-13.992 6.24-13.992 13.92s6.27 13.93 13.992 13.93c4.336 0 8.218-1.98 10.792-5.06v55.41h22.945v-104.38H55.809v31.25Z"/><path d="M309.056 1540.831h-70.97c3.135-2.84 5.138-6.88 5.138-11.43 0-8.55-6.967-15.49-15.567-15.49-8.591 0-15.555 6.94-15.555 15.49 0 4.55 2.004 8.59 5.133 11.43h-70.957v21.42h48.358c-8.096 8.27-13.098 19.55-13.098 32.01 0 25.36 20.65 45.91 46.12 45.91s46.138-20.55 46.138-45.91c0-12.46-5.01-23.74-13.106-32.01h48.366v-21.42Zm-81.399 76.46c-12.772 0-23.129-10.32-23.129-23.03s10.357-23.02 23.13-23.02c12.786 0 23.143 10.31 23.143 23.02 0 12.72-10.36 23.03-23.144 23.03ZM467.42 1520.831v9.56h54.098v7.52H467.42v29.08h68.369v-9.55h-54.086v-9.97h54.086v-26.64h-68.37ZM521.52 1462.981v9.12h-17.728v-9.12h-14.275v11.73h-22.32v-11.73h-14.262v47.52h50.86v-8.82h17.728v12.57h14.269v-51.27H521.52Zm-54.326 37.41v-16.12h22.321v16.68h-22.32v-.56Zm36.596-8.82v-9.9h17.728v10.46H503.79v-.56ZM349.267 1528.371v9.55h61.076v29.73h14.27v-39.27c-.534-.01-74.79-.01-75.346-.01ZM349.267 1462.981v42.63h75.348v-8.84h-61.071v-8.06h59.095v-8.83h-59.095v-8.06h61.07v-8.84h-75.347ZM858.206 1462.981v104.01h14.263v-104.01h-14.263ZM632.531 1462.981v104.01h14.254v-62.09h14.735v-9.55h-14.735v-32.37h-14.254ZM594.548 1481.811v-6.91h22.239v-9.56h-59.315v9.56h22.243v6.91c-.036 20.92-8.292 35.19-23.908 41.07v11.28c.215-.05 22.085-4.63 30.414-21.11l.91-1.8.912 1.8c8.332 16.48 30.197 21.06 30.418 21.11v-11.28c-15.626-5.88-23.875-20.15-23.913-41.07ZM748.27 1462.981v104.01h14.272v-104.01H748.27ZM710.264 1460.961h.036v8.63H734.258v9.54h-23.733v2.96c0 24.74 10.221 36.08 26.228 42.12v11.61l-.06-.01c-.216-.04-23.7-4.96-32.898-21.64l-.92-1.81-.916 1.81c-9.191 16.68-32.68 21.61-32.906 21.64 0 0-.041.01-.052.01v-11.61c16.007-6.04 26.24-17.38 26.24-42.12v-2.96h-23.742v-9.54h23.952v-8.63h14.813ZM335.371 1512.211v9.56h103.16v-9.56H335.37Z"/><path d="M858.206 1462.981v104.01h14.263v-104.01h-14.263ZM820.465 1482.091v-19.12h-15.304v19.12c0 24.74-10.217 36.08-26.233 42.12v11.61l.07-.01c.22-.04 23.699-4.96 32.893-21.65l.912-1.8.921 1.8c9.195 16.69 32.683 21.61 32.903 21.65l.06.01v-11.61c-16.005-6.04-26.222-17.38-26.222-42.12ZM354.406 1240.101c-17.264-33.43-28.462-62.95-34.859-82.04-3.135 17.44-10.845 57.37-22.29 97.39 9.404 16.33 18.657 29.27 26.724 40.63 11.027-16.56 22.346-36.01 30.425-55.98ZM316.533 1306.911c-8.15-11.46-15.977-23.76-23.646-36.81-5.699 18.34-12.18 36.11-19.345 51.1 3.41 5.01 8.646 12.15 15.818 20.49 4.225-4.86 15-17.61 27.173-34.78ZM171.458 1320.371c11.072 15.25 23.147 30.99 35.26 45.23 9.408-5.95 17.681-11.85 24.919-17.56-6.228-13.98-14.796-35.07-23.388-56.83-8.173 7.15-20.533 17.36-36.791 29.16ZM203.431 1278.961c-10.392-26.55-20.183-52.27-25.198-65.52-15.88 16.36-32.097 31.48-48.483 45.37 7.423 11.81 19.891 30.92 34.747 51.85 17.537-12.97 30.593-24.13 38.934-31.7ZM87.843 1371.731c18.881 8.93 38.936 17.63 58.158 24.54a415.176 415.176 0 0 0 21.372-9.26c-16.855-7.46-35.984-17.67-54.878-28.65a678.163 678.163 0 0 1-24.652 13.37ZM101.31 1351.741c-19.45-11.67-38.067-23.74-53.003-33.98a696.854 696.854 0 0 1-30.394 17.53c13.835 7.89 34.368 19.09 57.516 30.45a659.672 659.672 0 0 0 25.88-14ZM295.455 1348.531a279.645 279.645 0 0 0 17.925 17.77c36.082-15.55 67.719-39.54 85.312-54.31-10.3-14.07-19.523-28.22-27.74-42.05-29.526 37.68-67.468 71.56-75.497 78.59ZM-95.229 1384.681c-9.982 3.35-18.468 5.93-25.12 7.83-.056.01-.997.23-1.187.63-.146.31-.296.94.905 1.46 23.957 7.81 49.377 14.37 72.902 19.62a662.797 662.797 0 0 0 26.975-8.26c-26.704-6.84-52.955-14.36-74.475-21.28ZM-3.214 1410.331a657.93 657.93 0 0 1-25.328 7.97c22.427 4.55 41.967 7.72 55.144 9.46 9.78-1.5 19.2-3.16 28.283-4.96-17.821-3.21-37.817-7.56-58.099-12.47ZM60.739 1373.051c-23.377-10.41-45.287-21.12-60.083-28.69a730.663 730.663 0 0 1-26.698 12.89c18.847 8.38 41.23 17.61 63.974 26.27 7.85-3.43 15.451-6.93 22.807-10.47ZM52.11 1388.811c20.92 7.67 41.587 14.58 59.573 19.63a472.309 472.309 0 0 0 21.837-7.39c-17.642-5.12-38.837-13.34-59.728-22.29a666.163 666.163 0 0 1-21.682 10.05ZM22.788 1389.921c-26.646-8.84-51.735-17.75-68.57-23.98a702.718 702.718 0 0 1-27.664 11.01c17.94 6.22 43.83 14.71 71.175 22.62a706.877 706.877 0 0 0 25.059-9.65ZM14.172 1404.191c21.423 5.84 42.922 10.97 61.508 14.08a526.218 526.218 0 0 0 21.87-5.65c-18.022-4.73-38.9-11.07-59.607-17.74a660.22 660.22 0 0 1-23.77 9.31ZM369.584 1406.281c21.103-1.63 60.038-6.21 99.524-19.03a410.904 410.904 0 0 1-21.4-19.12c-19.86 7.46-57.187 21.04-98.17 26.12a303.96 303.96 0 0 0 20.046 12.03ZM340.71 1388.231c17.253-3.44 56.17-13.81 94.712-32.36a416.513 416.513 0 0 1-23.024-26.06c-18.697 11.39-55.924 32.53-91.094 43.42 5.928 5 12.394 10.03 19.406 15ZM496.546 1408.151a395.626 395.626 0 0 1-17.344-12.78c-11.349 3.78-48.628 14.96-97.993 16.93a304.42 304.42 0 0 0 22.719 10.02c21.208.98 53.549-.5 92.605-11.94.718-.27.929-.56.951-.96.038-.66-.938-1.27-.938-1.27ZM107.666 1276.751a641.016 641.016 0 0 1-39.935 28.68c22.997 19.63 70.382 56.93 107.92 77.59 8.35-4.15 16.07-8.37 23.198-12.61-23.264-21.19-72.028-73.11-91.183-93.66ZM204.607 1184.711c10.765 50.12 27.238 129.01 33.252 158.28 13.294-11.13 22.555-21.16 28.599-28.62 19.395-106.92 14.182-216.22 14.182-216.22-.026-.91-.093-7.72-2.179-8.52-2.724-1.06-4.385 1.97-4.385 1.97s-41.053 62.19-69.469 93.11ZM585.134 302.986c-20.56-39.813-33.88-74.967-41.506-97.703-3.73 20.775-12.92 68.32-26.533 115.971 11.198 19.452 22.207 34.866 31.812 48.383 13.14-19.72 26.605-42.88 36.227-66.65ZM540.037 382.533c-9.698-13.633-19.017-28.284-28.155-43.82-6.793 21.834-14.503 42.984-23.04 60.842 4.062 5.971 10.303 14.47 18.847 24.4 5.026-5.779 17.863-20.976 32.348-41.422ZM367.276 398.57c13.194 18.15 27.577 36.891 41.988 53.862 11.211-7.082 21.051-14.119 29.677-20.91-7.421-16.662-17.615-41.775-27.835-67.679-9.747 8.516-24.471 20.672-43.83 34.727ZM405.355 349.255c-12.387-31.612-24.032-62.239-30.003-78.018a815.16 815.16 0 0 1-57.737 54.028c8.825 14.054 23.679 36.815 41.371 61.744 20.896-15.448 36.443-28.736 46.369-37.754ZM267.71 459.722c22.492 10.64 46.366 20.998 69.27 29.231 8.941-3.589 17.412-7.263 25.426-11.027-20.055-8.88-42.848-21.044-65.333-34.129a788.551 788.551 0 0 1-29.363 15.925ZM283.75 435.93c-23.16-13.905-45.334-28.282-63.114-40.47a834.313 834.313 0 0 1-36.198 20.87c16.475 9.396 40.915 22.733 68.485 36.261a783.15 783.15 0 0 0 30.827-16.662ZM514.954 432.098a332.19 332.19 0 0 0 21.336 21.16c42.965-18.523 80.633-47.093 101.588-64.672-12.272-16.749-23.25-33.595-33.043-50.074-35.156 44.87-80.321 85.218-89.88 93.586ZM49.702 475.15c-11.875 3.995-21.973 7.06-29.91 9.318-.06.025-1.197.28-1.412.762-.174.363-.352 1.11 1.087 1.732 28.508 9.302 58.79 17.121 86.8 23.365a811.052 811.052 0 0 0 32.125-9.83c-31.803-8.145-63.051-17.104-88.69-25.347ZM159.28 505.696a767.002 767.002 0 0 1-30.156 9.49c26.695 5.411 49.97 9.202 65.657 11.266a769.699 769.699 0 0 0 33.676-5.915c-21.217-3.82-45.025-8.993-69.178-14.84ZM235.433 461.3c-27.844-12.39-53.92-25.149-71.531-34.167a859.772 859.772 0 0 1-31.811 15.356c22.463 9.968 49.097 20.977 76.194 31.274a811.605 811.605 0 0 0 27.148-12.463ZM225.153 480.07c24.918 9.134 49.522 17.368 70.943 23.377a575.246 575.246 0 0 0 25.998-8.805c-20.989-6.099-46.243-15.88-71.107-26.55a773.568 773.568 0 0 1-25.834 11.978ZM190.25 481.385c-31.736-10.523-61.62-21.14-81.661-28.556-11.676 4.922-22.697 9.293-32.938 13.115 21.356 7.403 52.183 17.525 84.755 26.928a803.18 803.18 0 0 0 29.843-11.487ZM179.979 498.383c25.508 6.95 51.119 13.07 73.24 16.768a673.468 673.468 0 0 0 26.051-6.717c-21.47-5.65-46.321-13.183-70.988-21.147a750.688 750.688 0 0 1-28.303 11.096ZM603.208 500.861c25.13-1.924 71.502-7.37 118.517-22.65a492.753 492.753 0 0 1-25.49-22.77c-23.636 8.895-68.089 25.053-116.892 31.104a350.578 350.578 0 0 0 23.865 14.316ZM568.838 479.385c20.538-4.096 66.88-16.448 112.777-38.547a492.56 492.56 0 0 1-27.416-31.033c-22.274 13.562-66.603 38.744-108.472 51.705a348.57 348.57 0 0 0 23.11 17.875ZM754.399 503.104a479.417 479.417 0 0 1-20.641-15.224c-13.53 4.501-57.913 17.807-116.705 20.164a357.49 357.49 0 0 0 27.066 11.928c25.241 1.181 63.753-.6 110.27-14.217.841-.319 1.112-.673 1.132-1.134.05-.8-1.122-1.517-1.122-1.517ZM291.319 346.621c-15.83 12.297-31.726 23.695-47.563 34.153 27.391 23.381 83.813 67.802 128.524 92.396a422.168 422.168 0 0 0 27.62-15.007c-27.701-25.232-85.773-87.068-108.581-111.542ZM406.761 237.018c12.82 59.688 32.425 153.632 39.593 188.484 15.835-13.252 26.854-25.203 34.05-34.079 23.112-127.327 16.905-257.476 16.905-257.476-.036-1.09-.114-9.193-2.612-10.149-3.227-1.25-5.22 2.346-5.22 2.346s-48.893 74.062-82.716 110.874ZM187.328 627.285c.318-.318 39.551-38.903 39.551-38.903s39.244 38.585 39.558 38.903h28.394c-1.734-1.777-39.137-40.144-39.137-40.144h32.127v-19.04H165.942v19.04h32.126l-39.132 40.144h28.392ZM10.919 568.101l-35.664 92.851h20.372l23.75-61.704 23.758 61.704H63.51l-35.659-92.85ZM110.24 660.947h20.362v-92.846h-20.361v92.846ZM74.501 595.89a12.422 12.422 0 0 0-9.57-4.506c-6.847 0-12.407 5.556-12.407 12.378 0 6.841 5.56 12.392 12.407 12.392 3.842 0 7.289-1.752 9.57-4.503v49.294H94.84V568.1H74.5v27.791Z"/><path d="M240.682 627.211c0-7.615-6.176-13.785-13.803-13.785-7.616 0-13.8 6.17-13.8 13.785 0 4.044 1.78 7.64 4.554 10.158H154.71v19.06h42.88c-7.175 7.353-11.614 17.39-11.614 28.471 0 22.552 18.312 40.836 40.901 40.836 22.588 0 40.91-18.284 40.91-40.836 0-11.083-4.437-21.118-11.62-28.47h42.887v-19.06h-62.929c2.777-2.519 4.557-6.115 4.557-10.159Zm-13.803 78.17c-11.328 0-20.51-9.176-20.51-20.48 0-11.317 9.18-20.485 20.51-20.485 11.34 0 20.524 9.168 20.524 20.484 0 11.305-9.185 20.48-20.524 20.48ZM439.48 628.082h47.971v6.684H439.48v25.87h60.625v-8.49h-47.953v-8.878h47.953v-23.69H439.48v8.504ZM487.451 576.228h-15.722v-8.113H459.07v10.436h-19.783v-10.436h-12.654v42.277h45.096v-7.855h15.722v11.186h12.654v-45.606h-12.654v8.111Zm-28.379 25.662H439.29v-14.837h19.782v14.837Zm28.379-7.85h-15.722V584.736h15.722v9.302ZM334.712 634.775h54.155v26.446h12.662v-34.935h-66.817v8.49ZM401.53 598.173h-54.154v-7.165h52.4v-7.86h-52.4v-7.165h54.155v-7.868h-66.817v37.92h66.817v-7.862ZM598.526 568.115h-12.649v92.521h12.65v-55.233h13.064v-8.496h-13.065v-28.792ZM552.21 584.86v-6.139h19.718v-8.51h-52.596v8.51h19.723v6.14c-.036 18.61-7.354 31.314-21.195 36.538v10.028c.188-.042 19.583-4.109 26.964-18.765l.81-1.605.802 1.605c7.39 14.656 26.776 18.725 26.975 18.765V621.4c-13.857-5.224-21.163-17.928-21.201-36.539ZM688.517 660.638h12.65v-92.52h-12.65v92.52ZM655.04 585.12v-2.633h21.056v-8.502H654.852v-7.665H641.68v7.665H620.43v8.502h21.056v2.633c0 21.994-9.077 32.092-23.264 37.46v10.333l.047-.009c.198-.04 21.024-4.412 29.172-19.259l.817-1.615.813 1.615c8.16 14.847 28.983 19.22 29.177 19.26l.052.008V622.58c-14.201-5.368-23.26-15.464-23.26-37.46ZM322.388 620.402h91.474v-8.493h-91.474v8.493ZM786 568.115v92.521h12.65v-92.52H786ZM752.526 585.12V568.1h-13.562v17.02c0 21.994-9.064 32.092-23.264 37.46v10.333l.056-.009c.197-.04 21.02-4.412 29.168-19.259l.821-1.615.821 1.615c8.144 14.847 28.967 19.22 29.167 19.26l.05.008V622.58c-14.192-5.368-23.257-15.464-23.257-37.46Z"/></g></g></g></svg>