<svg xmlns="http://www.w3.org/2000/svg" width="758" height="604" overflow="hidden"><defs><clipPath id="a"><path d="M-1 76h758v604H-1z"/></clipPath></defs><g fill="#FFF" fill-rule="evenodd" clip-path="url(#a)" transform="translate(1 -76)"><path d="M549.17 78.616c3.077.397 5.82 1.626 8.254 3.54 1.315-.085 1.82 2.15 3.517 1.335 1.428 2.23 3.809 2.461 5.549 4.21-.396 1.235 1.421.212.979 1.454h.478v3.359c.629.344 1.361.151 2.096.209v1.795c2.641-.082 4.628 1.484 7.142 1.646 1.152.625 1.077 2.132 2.24 2.21.79.564.326 1.584 1.312 2-1.169 2.07 2.383 2.229 1.359 4.189 1.223.412.241 1.661 1.385 2.022.234 2.042 1.428 3.609 2.677 5.19.571 2.644 3.606 4.333 3.212 7.374 1.586 2.339 1.484 5.462 2.63 8.068v8.169c-1.544.248-.5 2.481-.836 3.672-.445 1.347-1.929 2.29-1.298 4.042.065.294.462.084.648.169 0 .724-.184 1.578.652 1.997v5.19c-.652 1.102-1.298 2.254-1.986 3.351.43 1.064-1.132.34-.607 1.372-.592.688-1.818 1.09-1.578 2.156h-.542c.447 2.105-1.339 3.306-1.646 5.18-.988.356-.802 2.007-2.042 2.007.554.936-.938 1.042-.669 1.877-1.436.25-2.047 2.42-3.681 2.312-2.151 1.16-1.82 3.626-4.012 4.86.792 1.815-1.716 1.35-1.027 2.998-.798.501-1.557 1.129-2.492 1.129-1.716 1.099-3.413 2.105-5.049 3.08.087.955-1.047.871-1.549 1.337-2.364 2.89-5.211 4.543-8.452 5.537-2.308.671-5.071.491-7.031 2.19-1.745.818-4.005.25-5.36 1.982-1.11 1.225-3.077.291-4.568.854-6.657 3.148-13.917-.44-21.354.503-1.293-.851-5.126.578-3.83-2.524l-2.171-.353v-3.169c-.899.084-1.778 1.188-2.728 1.85-.416-.686-.563-1.494-1.692-1.333-.841.794-1.825 1.003-2.11 2.19-.653.25-.865-.438-1.264-.713.256-.986-.984-1.434-1.479-2.163-1.339-.077-1.697 2.163-3.377 1.333-.14-.539-.348-.979-.785-1.333-.384.525-1.194.794-.885 1.523l-2.885 1.976h-3.237c1.963-1.013 1.257-3.058 1.373-4.81.375.084.522-.209.728-.392v-3.771l-1.673-2.233c-.812.27-.152 1.856-1.344 1.35-.391.258-.64.946-1.203.691-.131-1.271 1.104-2.44.667-4.045l-.815-.375c2.267-1.396-.949-2.315 0-4.163-.592-1.063-1.575-2.004-2.015-3.149-.211-.318-.46-.126-.733-.183.271-.98-.514-2.255.733-2.878v-5.667c-1.489-.464.048-2.17-1.359-2.692.549-1.771-1.609-2.481-.884-4.336-1.129-.375-.148-1.602-1.334-2.002-.392-1.313-.252-2.791-1.492-3.71-.147-.974.358-2.264-.727-2.83.147-3.123-.203-6.46.435-9.34.587-1.545.147-3.477.292-5.229 1.286-.536.735-1.855.839-2.815.655.171.945-.332 1.387-.664v-.679c.815-.134.863-1.927 2.11-1.859l.377-.337c-.106-.08-.164-.251-.377-.147v-.501c.377.061.522-.168.733-.353-.788-1.584 1.423-.955.672-2.522 1.206-.476.456-1.773.645-2.647-1.528-.75.106-3.315-1.317-4.417.879-1.896 2.267-3.672 3.366-5.46-.099-.236-.357-.209-.536-.209.251-.898-.561-2.339.623-2.818-.447-.979 1.24-1.042.735-2.021.522-.712 1.658-1.162 1.467-2.192.875.318.544-.683.875-1.01.628-.823 1.74-1.34 1.888-2.296 2.03.356 3.076-2.062 4.304-3.234-.503-1.145 2.83-2.105.74-2.663-.542-1.384.715-1.622 1.445-2.166 2.576-3.318 5.861-4.658 9.129-6.196 2.757-.517 5.496-1.015 8.227-1.542.978-.183 1.82-.89 3.071-.65 1.675-2.682 4.962-1.578 7.036-3.56 1.237 0 2.569.209 3.468-.629 5.53.477 12.022-1.275 16.536 1.502ZM756 658.982C756 670.06 621.235 679 455.016 679 288.787 679 154 670.058 154 658.982 154 647.952 288.784 639 455.016 639 621.238 639 756 647.952 756 658.982ZM347.735 161.026c18.708 2.589 37.234 10.015 51.731 19.788 3.517.61 6.726-.344 9.534-1.945-1.55-5.299-7.314-10.405-12.136-13.462-11.537-4.955-24.733-5.991-34.506-15.231-1.826 3.871-6.061 4.017-9.962 4.06-6.552-1.079-11.305-6.613-18.556-6.216-2.114.598-2.22 2.938-4.102 4.056-.15.973.399 2.21-.508 2.923-.457 1.591-.249 3.527.76 4.807l17.745 1.22Z"/><path d="m568.477 472.6 7.599 7.288c2.045 2.434 2.944 4.614 1.519 8.277 8.896 11.11 28.13 54.022 35.552 67.835l.853-2.937c-1.495-13.346-6.683-10.919-5.517-23.174-4.348-2.599-3.007-9.891-5.983-13.428-3.432-8.069-4.942-16.034-10.695-23.189-.15-1.338-2.628-1.163-3.551-2.233.082-8.72-7.497-23.181-11.406-30.318-1.782-5.202-6.379-12.56-8.306-17.863-5.416-15.737-24.244-39.36-24.766-47.543-8.432-6.286-11.067-20.041-17.118-28.015-2.929-6.625-7.755-12.521-12.719-18.284-1.527-3.826-5.838-6.383-8.039-9.903-1.768-2.013-2-5.222-4.415-6.579-2.15.673-3.041-1.449-5.145-.774l-7.067-10.672c-2.616-3.932-5.307-8.248-10.003-9.482-2.389-1.617-4.326 2.209-6.106-1.017-2.807-4.118-3.304-9.087-6.135-13.176-1.548-1.374-2.271 1.621-3.797.193-.759-2.915-.36-3.401-1.36-6.176-4.543-.204-8.014-3.073-11.193-6.4-2.756-1.49-4.949-5.703-8.08-4.401-3.992 1.798-3.246-3.182-5.731-5.091-.341-1.676-1.153-3.227-2.237-4.589-1.986-.16-1.42-3.378-3.855-2.427-1.295-1.909-2.594.31-3.906.44-1.778-1.928-.609-4.989-.959-7.566-1.277-.396-.193-1.788-1.512-2.182-2.157.593-4.471.339-5.604 2.916-5.458.505-8.934-4.885-11.403-9.282-1.848.163-4.104-.486-5.333 1.196-1.742.266-4.674.856-5.126-1.682-1.029-3.269-3.094-6.24-5.654-8.422-2.759-2.282-6.123-2.245-8.845-4.041-2.483-1.57-3.319-3.73-6.527-4.909-2.674-.897-5.649-1.023-8.335-1.843-6.723-2.096-13.875-2.809-20.734-5.113-1.954-.796-2.384-1.13-4.413-1.693-1.993 1.338-4.21 2.661-6.848 1.737-2.911-2.008-6.437-2.676-8.717-6.076l-1.486 5.384-5.374.418c-3.353.274-6.031 2.146-8.785 3.966-4.128.147-7.394-1.742-10.461-4.176-1.829 3.315-5.232 4.863-8.015 6.835-.944.627-2.526-.269-3.183 1.004-2.169-.883-3.01 1.573-5.142.69-.653 1.742-3.81-1.82-3.81.529 0 3.141-6.591 4.629-6.487 2.766-1.404 2.787-.104 5.533-2.776 7.65-1.674.225-2.473-1.751-3.666-2.622-5-.039-9.355 1.679-14.148 2.177l-1.497 3.378c-2.787 1.449-2.976 5.274-4.353 7.812l-1.236-.714c-1.498-.208-2.778.259-3.665 1.196-2.927-1.079-2.4 2.913-4.871 2.438-.798.959-2.657 1.501-3.872 2.275-1.568.421-2.51 2.453-4.203 2.39-1.486 1.111-1.986 3.015-3.157 4.626-8.539 11.95-13.729 7.474-14.92 6.586.65-4.36 5.753-7.142 8.072-10.537 2.826-4.147 6.382-5.724 9.746-8.974 1.404-1.376 1.846-3.309 3.37-4.589 1.657-1.464 4.065-1.982 5.654-3.581 1.102-1.07 1.254-1.147 2.679-2.325 6.046-5.405 14.471-9.136 15.997-11.273 1.57.966 3.31-.694 5.044-.338l3.145-1.217c1.671-3.436 6.879-5.147 9.705-7.264 1.174 1.232 2.715 1.738 4.534 1.486 3.579-1.246 7.352-.46 9.381-3.879 1.918-2.162 5.853-1.889 8.014-1.241.394-1.149.788-2.281 1.979-3.14 1.84-1.462 4.352-1.616 6.801-1.462 1.592 1.82 4.578.579 6.382 1.982 1.795-.063 3.824.254 5.06-1.232 1.38-1.137 1.38-2.917 1.969-4.422 6.775.479 14.659-1.554 19.536 3.672 9.541-3.88 22.466-2.603 30.893 2.739 9.35 3.315 17.828 9.013 26.794 13.145 3.227.145 5.59 2.446 8.558 3.138 3.773 2.705 3.478 7.024 6.891 9.831 1.447-.148 3.138.372 4.387-.506 19.693 11.275 38.057 25.818 56.235 40.797 21.763 18.635 57.152 65.835 71.63 88.914 1.819 1.333 4.546 3.138 4.852 5.596 1.341 1.043 2.906 3.729 3.208 5.243 1.838 3.013 13.64 22.02 18.971 31.369 1.488 2.596 3.642 4.062 6.906 7.014-8.79-24.579-26.568-50.879-39.464-73.886-12.864-19.257-23.113-39.433-39.311-57.216-1.688-3.303-4.792-5.911-7.777-8.263-3.222-3.481-3.875-10.055-9.954-9.578-2.519-8.616-9.756-16.557-17.594-21.71l-2.597-.499c-.316.644.421.871.735 1.234-.068 1.645.333 3.479-1.483 4.418-3.269-1.023-3.481-4.527-6.401-6.392-7.263-5.388-13.727-12.676-21.196-17.837-1.64-2.905-4.169-5.02-6.335-7.5-5.906-3.245-12.073-5.841-17.744-9.574-1.488-2.33-4.891-4.048-6.384-6.883-1.838-.182-4.159.655-5.604-.639-8.343-1.111-14.118-8.367-21.229-12.468-2.973.102-4.563-3.123-7.739-2.453-3.157-2.473-8.159-.382-11.78-1.684-3.809.91-5.939-2.369-8.536-4.391l-1.176 1.163c-3.515 1.996-9.367 3.63-12.961.506-4.056-.421-9.809-1.844-12.341 2.935-3.372-.373-6.384-1.336-9.314-2.7-8.362.232-14.953 3.285-25.816 4.778-6.045 3.753-11.272 3.584-17.316 7.167-2.995 1.677-6.403 2.243-8.934 4.948-2.467-.252-5.334 1.904-7.114-.252.085-1.846 2.362-2.998 2.505-4.8 4.311-2.284 8.587-4.28 11.886-7.936 4.582-1.014 8.097-4.643 12.848-5.393v-.036a26.8 26.8 0 0 1 1.775-.528c2.766-.607 5.589-.9 8.268-1.59 27.492-7.19 49.577-6.522 68.195-1.967 8.031 1.377 15.461 4.121 22.9 6.869 21.971 9.686 42.591 22.255 61.212 40.006 5.693 4.9 15.695 15.047 17.113 13.888 1.408-1.113-3.546-5.76-3.657-8.802-1.483-2.32-1.633-3.058-3.893-4.836-1.626.268-3.012-6.397-4.452-5.026-8.981-8.949-17.34-16.583-26.763-24.545-14.901-12.178-30.961-21.076-48.279-27.328-8.181-1.467-15.954-4.005-24.684-4.375-3.41-1.004-6.021-4.149-9.705-4.652-4.642.079-10.145-.593-13.91 2.429-5.541-4.036-12.925-.714-19.022 0-1.193.23-2.884 1.57-4.202 1.993-1.694.511-3.466.796-5.21.958-3.512.257-7.063-.21-10.457-1.192.169 3.789-7.116 4.21-9.533 4.902-.863.251-3.271 1.802-3.15 1.594-5.667-.614-9.097 2.681-12.969 6.141-2.823-.346-7.111 1.023-6.338-3.963.268-1.641 1.633-2.495 2.87-3.463.56-.455 1.444-.876 1.799-1.425.184-.145.875-1.464.725-1.343.193-.123 6.995-3.682 6.995-3.682 4.101-.44 8.469-4.505 12.193-1.239.674-2.973 3.855-3.685 6.087-4.606 3.522.27 6.174-1.157 8.314-3.947 5.809-1.338 12.338-1.236 18.775-1.236 1.488-1.44 4.019-.295 5.802-.961 1.275-.798 3.695-1.342 3.406-3.169 1.63-2.195-.078-5.712 1.449-7.788-3.073-3.818-6.343.791-9.713.689-.944-1.091-2.384-2.076-2.908-3.421-8.787 1.219-17.024 3.445-25.833 4.612-1.425.9-3.637 2.327-4.352-.167-4.285-1.713-6.889 1.671-9.831 3.851-1.068-.157-2.589.404-3.386-.476-7.097 5.615-16.135 6.535-23.389 11.72l-.481-.743c-1.818.131-2.872-2.03-4.166-2.661l-.396.481c-7.498 4.885-16.78 5.371-25.215 8.088l-4.348 2.671c-5.166 3.497-2.889 10.895-8.285 13.426h-15.644c-2.034.131-1.894 2.49-3.628 3.443.05 1.546.149 3.189-.983 4.358l-9.512 1.93c-3.621 4.087-7.585 6.997-11.452 10.515-9.386 6.122-17.613 15.156-26.792 21.541-1.591 6.501-8.62 7.904-13.454 10.711-1.548 1.699-3.258 3.436-3.615 5.896-1.45 1.295 1.084 5.176-2.174 4.842-2.285 2.947-3.626 6.281-4.464 9.784-1.36.859-2.592 2.325-4.374 2.473l-38.287 50.961c.693 18.534-16.5 29.646-20.222 46.423-11.47 13.581-17.135 29.573-24.86 44.678L2.681 454.658C1.488 469.586-.592 480.831.16 496.636c.927 4.251 2.072 11.966 3.159 15.859 2.101 9.182 9.377 16.138 16.405 23.249 10.652 12.192 24.918 18.579 40.898 14.943 8.73-3.554 17.6-6.649 25.382-12.267 6.84-3.078 14.098-5.253 19.712-11.248 4.447-4.338 7.273-9.325 9.741-14.382 4.379-15.312 11.775-29.379 17.824-43.945 5.417-13.225 15.234-24.615 21.76-37.398.061-2.835.732-5.489.94-8.323 3.079-6.368 8.659-11.773 10.949-18.499-1.138-3.898 3.07-5.775 5.123-8.093.372-.402 1.203-.312 1.459.319.606.104 1.157.985 1.696.438 1.342-4.198-.645-9.697 1.736-13.433 4.858-3.06 7.928-8.069 11.193-12.513 2.534-7.31 8.116-13.472 12.635-19.964 4.831-2.39 4.609-8.003 7.619-11.732 12.838-12.46 26.398-24.434 38.996-36.648 3.259-2.494 7.112-3.527 10.041-6.849 2.278-4.408 7.317-5.688 10.986-8.558 20.497-11.855 64.745-29.184 120.329-7.038 55.726 22.208 118.858 79.344 179.734 192.046Z"/><path d="M532.787 318.862c1.644 3.378 4.583 6.836 5.785 10.414.375.975.981 4.444-.644 4.713-1.895.332-5.144-7.218-5.935-8.454-4.52-7.449-9.204-14.866-14.059-22.089-10.06-15.073-21.077-29.591-33.174-43.112l-1.185-2.224-27.017-29.969c-13.063-13.099-27.072-23.895-40.558-35.897-2.633-1.767-5.487-3.344-8-5.361.493-1.331 1.976-2.284 2.909-3.369 3.487.557 6.461-1.624 9.272.288 35.3 24.343 90.362 90.089 112.606 135.06Z"/><path d="M686.626 459.51c3.767 3.95 6.461 8.735 9.24 13.083-.543 3.617 4.884 5.096 6.181 8.001 2.482 4.015 4.648 8.11 6.669 12.315 3.338 5.364 5.2 11.398 9.271 16.526.041.979.417 1.879.921 2.697.251 3.994 4.764 4.575 6.751 7.837 0 .876-.106 1.779.485 2.36.157.989.559 2.449-.485 3.134 6.302 7.799 9.433 16.953 13.13 25.857.714 3.761 3.14 6.77 4.197 10.423 1.633 1.472 1.756 3.561 2.388 5.499.829.651 1.377 1.86 2.626 1.445-.246-4.514-2.525-8.206-3.902-12.339-.943-1.042-2.026-2.082-1.592-3.774.236-4.172-3.275-6.879-3.927-10.703-3.251-3.241-1.066-8.756-5.979-11.348.08-.982.08-1.853-.617-2.507.697-2.946-.789-4.509-2.028-6.683-.688-1.429-1.001-5.938-1.042-7.656-2.14-2.864-3.256-6.686-5.651-9.37.202-2.765-1.182-4.919-1.971-7.221-1.131-1.67-3.118-2.946-4.013-4.717-3.41-3.304-1.565-7.258-4.976-10.472.336-1.301-1.039-1.865-1.541-2.867-1.961-4.007-5.166-7.938-6.893-11.511-2.32-3.354-4.679-6.773-6.996-10.202.248-2.681-.71-4.893-2.446-6.775-2.779-.447-4.452-3.55-6.702-5.371l.523-1.564c-1.129-.687-1.756-2.84-3.514-2.065-1.175-.447-.376-1.779-.545-2.635-6.879-3.894-7.248-12.045-13.282-16.258-1.254-.948-.55-2.736-1.358-3.923.494-1.832-1.421-2.664-2.405-3.911-.899-.22-2.187.552-2.677-.637-1.481.417-1.396-1.769-2.817-1.581.145-1.064-1.293-1.426-.844-2.656-2.752-1.549-3.9-5.079-7.031-6.293-.685.087-1.425 1.214-1.876 0-1.847-.922-4.643-2.794-4.389-5.241-.167-1.945-2.275-.955-3.469-1.257-1.546-.606-.436-2.237-.984-3.284-.217-.666-.96-1.568-1.768-1.568.179-1.446-1.447-.517-2.161-.789-3.801-1.421-4.635-5.996-8.359-7.565-.76-.27-1.881-.316-2.378.628-1.056 1.045-2.007.215-2.841-.775-1.932-.123-3.468-1.225-4.821-2.881-.131-1.438-2.253-.943-3.201-1.884-2.774-2.857-9.544-1.892-12.407-4.905-2.879-3.009-9.068-.833-11.53-5.082-.758 1.8-.987-.099-2.473.092-1.039-1.195-5.048-.171-4.609-2.283h-1.852l-.272 2.07-10.282-.378c-.444-.394-.695-1.108-1.423-.84-6.309-9.229 4.845-4.09 4.845-4.428v-1.737c1.423.275.331-1.269 1.488-1.583 3.589 1.861 9.233-1.233 11.946 2.722 2.774-.717 3.008.955 6.066.955 3.039.379 6.401.331 8.931 1.899 4.954 1.127 8.714 5.287 13.938 5.827l14.244 7.717c6.855 5.098 14.249 8.611 20.974 14.023-.196.915.791 1.269 1.403 1.59 4.942 2.589 8.203 7.287 11.652 11.635 4.259 7.224 12.573 9.664 16.714 16.866 2.689 4.621 6.247 8.715 9.121 13.16 1.961 2.951 3.114 6.358 4.974 9.325 2.132 3.434 7.276 2.507 4.809 6.395 1.387.352 2.371 1.206 2.752 3.771 1.261 3.629 4.018 6.749 5.163 10.402 6.081 8.727 13.854 25.535 15.475 24.739 1.64-.787-2.964-12.743-6.36-18.533-2.827-8.069-8.135-15.033-12.014-22.693l-.267-1.899c-.946-1.262-.659-3.016-2.036-4.126-1.734-6.283-7.161-11.099-10.711-16.63-1.698-4.888-6.041-8.667-7.257-13.719-2.689-3.733-4.469-8.46-8.639-11.012-.085-2.944-3.512-4.431-3.767-7.27-1.766-.186-2.567-3.236-4.737-1.87.542 1.334-.753 1.836-1.447 2.668-3.982-3.716-7.496-7.484-11.797-10.433l-.296-.895c-2.931-.524-4.694-3.747-7.081-5.682-.398-.529-.319-1.581-1.272-1.446-3.743-6.708-11.453-6.563-16.53-11.449-2.234-.292-2.043-3.317-4.368-3.469-5.931-1.226-10.12-6.641-15.918-8.173-2.373-2.654-6.49-.977-9.754-1.464-.873-.751-1.772-1.581-1.587-2.671-2.045 1.194-4.881.378-7.373.649-.88-.806-1.78-1.523-3.007-1.422-.88-1.199-2.653-.289-3.447-1.394-1.21.195-2.739-.582-3.473.586l-5.829-1.238c-8.304-.207-17.059-.695-24.27 2.239-4.113.083-6.64 4.131-11.488 2.626-.456-.512-1.023-1.043-1.696-1.06-1.046-.629-1.632-1.672-1.859-2.738.943-1.918 3.49-2.21 5.784-2.005 10.969-6.92 31.756-7.036 37.979-6.078 10.566.521 20.577 3.366 29.704 7.294 3.109 2.188 6.77 2.9 9.761 5.216 9.751 4.498 18.293 11.852 27.043 18.78 3.266 3.986 7.086 7.699 10.89 11.422h1.396c1.129-1.156.398-3.187.625-4.818-.625-.447-.979-1.576-1.874-1.262-.543-1.458-2.002-.548-3.012-.794-2.856-3.156-5.591-6.331-8.164-9.656-3.799-3.345-7.41-7.145-11.633-9.565-1.133-1.633-2.764-4.896-5.518-4.107-5.349-6.191-12.513-8.208-18.902-11.806l-.947-1.546-6.614-1.617c-4.954-.762-9.242-3.023-14.608-2.618-2.923-2.866-7.498-1.867-11.473-2.08-3.046 1.446-7.226-.222-10.123 1.446-1.987-1.026-4.228-1.233-6.287-2.063.207 1.023-.188 1.797-.726 2.492-3.565.053-7.286.398-10.6 1.457-.295-.149-.55-.294-.623-.69-.337.92-1.261.316-1.9.505-.837 1.377-2.381.711-3.367 1.553-2.074-1.264-3.907-2.617-2.463-4.294 4.192-1.004 8.213-2.338 12.453-3.284 1.941-2.375 5.639-.519 7.846-2.186 2.057 1.611 5.354.181 7.585 1.288 3.769.613 7.363-.145 10.848-.796.292.07.502.104.839.104 3.401.152 6.358 1.071 9.788 1.071l.383-.164 8.167 2.005c2.088.441 4.367.357 6.039 1.759 2.523 1.918 6.29 1.262 8.839 3.431 6.454 1.764 10.94 8.353 17.874 8.957v-2.384c-.294-2.558-3.422-3.045-4.872-5.328-2.653-.649-4.423-3.257-7.1-3.904-1.148-1.291-2.795-1.465-4.201-2.09-2.038-1.672-4.424-2.531-6.329-4.512-1.893 1.622-4.554 1.395-7.117 1.395-2.53-2.196-5.051-4.548-8.589-4.276-1.732-.569-3.801-.948-4.428-1.032-1.838-.27-4.493-.997-6.727-.919-.786-.268-1.765.067-2.588-.078-.545 1.586-1.813-.379-2.942 0l-1.488-.82c-2.858.251-7.667-1.636-10.195-.504-9.734-.353-26.395 2.591-34.176 4.625-1.193.06.755-.335.673-1.112l-2.009 2.022c-.793-.126-1.403.212-1.98.699h-10.2c-2.966.039-2.563 3.453-4.247 5.012-2.414 2.063-5.779 1.778-8.637 2.7-3.352-.963-6.729-.461-9.461 1.354-.297 1.09-1.093 2.034-2.072 2.881-.588.086-.977-.206-1.428-.623-2.378.109-4.611.623-6.283 2.657-1.543.212-2.293 2.613-4.218 2.19-4.245 3.238-9.524 3.637-13.39 7.567-3.712 2.345-7.183 5.26-10.883 7.871-.441-1.163-1.63-.367-2.462-.603-.321.236-.092 1.061-.774.818v.545c-1.317.876-1.522 2.176-1.566 3.496-.902-.176-.902.953-1.29 1.431-.743.232-1.276.965-2.224.76-1.772.784-1.083 2.623-1.256 4.112-3.546 3.612-7.802 5.6-11.806 8.336a89.559 89.559 0 0 0-15.433 11.205c-1.076 1.339-1.879 2.736-3.276 3.936-2.568 1.87-1.57 5.257-4.281 7.086-9.611 11.519-20.278 22.609-31.607 33.049-.955 1.762-1.432 3.728-3.003 5.209-1.191 3.461-5.74 3.842-6.437 7.524-6.237 6.975-8.94 15.925-16.518 21.764-5.555 6.215-7.916 13.741-12.617 20.323-1.435.857-2.711 1.904-3.461 3.451-3.702 2.149-4.642 6.577-6.753 9.943-3.343 2.408-3.323 6.232-6.285 8.802-1.879 3.265-4.05 6.249-5.2 9.729-2.865 2.784-2.865 6.654-4.216 9.933-1.925 2.409-2.824 5.145-3.056 8.19-1.842 2.615-1.495 6.377-.796 9.955-.699 1.383-.641 4.01-.699 6.283l1.326 1.446c-1.606 5.665.21 11.41 2.094 16.361.728 1.984.297 4.351 2.238 5.83 3.256 7.086 10.523 13.42 16.808 18.248 3.743 2.777 8 4.095 12.272 5.648-.254 2.249 2.361.201 2.959 1.789 1.278 0 3.152.728 3.951-.642 4.555-.172 7.317-4.606 11.818-4.874.197-1.216 1.671-.394 2.525-.628 1.406 1.069 3.326 1.006 4.852 1.875.34-.289.548-.869 1.127-.659v-.441c2.723-2.987 6.246-3.993 8.998-6.94 5.678-4.014 8.955-10.199 12.819-15.562v-1.6c1.36-.497.634-1.87.839-2.833.907-.902 1.737-1.889 2.822-2.389 5.376-3.643 6.77-9.171 11.283-13.186 1.987 1.026 2.26-2.297 4.153-1.445.842-2.98 1.245-6.184 3.304-8.677.753-2.712 2.234-5.156 2.318-8.191 1.486-2.15 3.516-4.047 4.223-6.457 3.76-4.199 5.432-9.114 8.07-13.717 6.447-13.329 15.224-25.714 22.867-38.572 3.239-3.238 5.885-6.843 7.877-10.704 13.453-16.933 26.61-35.044 43.866-49.43 6.724-4.041 12.467-10.331 19.507-13.381 3.698-2.618 9.387-2.213 11.37-7.405 3.593-2.317 7.356-4.319 12.307-3.443 6.133-1.185 10.89-6.083 18.087-4.918.911 1.175 2.298 1.361 3.427 2.083.564-1.453 2.339.202 2.86-1.453 3.111-.917 4.761 1.759 7.834.844.374.307.733.753 1.273.609 1.293-1.352 3.698.118 4.889-1.323l.311.714c.695.514 1.561.727 2.504.609.422 1.457 2.047.144 2.682 1.223 1.191-.222.851.979 1.08 1.612 3.263-.273 5.388.417 8.251 1.059 1.751 2.56 5.304.907 7.694 2.075 4.527 2 9.001 5.914 13.53 8.003 3.907 1.646 8.569 1.378 11.302 5.852 20.315 11.991 40.748 36.624 48.309 48.015Z"/><path d="M641.176 353.939c2.265 1.812 4.299 4.111 6.982 4.921 8.692 12.3 21.87 22.823 32.045 34.545 2.714 4.566 5.753 8.995 8.687 13.545 2.431-.624 2.027 2.697 4.064 2.82 1.275 2.944 1.933 6.07 2.828 9.152.987.386 1.846 1.015 2.139 2.053.839.504 1.824.827 2.956.926-.53 2.07.837 3.419 1.408 4.983 2.971 4.425 5.214 8.765 8.271 13.071.141 2.443 3.443 7.74 5.006 6.969 1.555-.793-1.527-2.757-1.563-4.432-2.327-4.019-1.744-9.193-4.734-12.868-.746-3.318-3.668-5.791-5.753-8.56.409-1.05-.598-1.633-.598-2.626-1.785-2.822-4.154-4.396-5.915-7.415 1.118-3-2.559-4.013-2.366-6.642-.754-.997-1.775-3.104-2.869-3.104-12.488-19.232-25.711-32.221-46.978-50.649h-.569l-.67-.614c-1.918 0-4.125-.181-5.547.773 1.715.798 1.381 2.959 3.176 3.152ZM496.095 509.51c-.539-3.543-10.292-18.426-11.424-21.697-.754-1.093-.539-2.644-1.771-3.611-.519-2.244-3.442-3.518-4.29-5.641-.084-.591.454-1.801-.686-1.641-.253-1.407-1.828-2.202-2.681-3.317-1.089-.545-2.111-1.977-2.224-3.526-1.227.192-.35-1.24-1.372-1.531.935-1.781-1.783-2.096-1.507-3.584-.841-.739-15.186-22.902-37.779-37.884-.21.021-6.256-3.109-6.526-3.153-1.193-2.057-6.113-4.195-8.147-5.312-4.534-4.003-9.741-6.375-15.18-8.035l-2.196-2.181c-1.133.126-1.824-.925-2.763-1.386-.507.756-1.292.909-1.908 1.386-1.669-.38-4.179.986-5.147-1.386-2.423-.48-4.092-3.017-7.162-2.077-.355.299-.51.803-.763 1.185-2.507-.828-4.592-1.788-7.456-1.878-.643-.598-1.21-1.153-2.189-.836-1.398 2.121-2.874-.676-4.509-.533-1.131-.269-2.522.073-3.374-.872-2.111 1.292-5.077.506-7.652.715-1.652 1.279-5.539 0-7.594.232-1.773.858-3.867.895-5.944.858-4.495 1.282-7.57.652-11.526 3.167-.788-1.109-3.157-.404-2.628-1.911-1.049 1.623-2.64 1.911-4.169 2.498-2.425 1.054-3.761-1.401-6.29-.548-.973 1.006-2.473.405-3.606 1.006 0 2.079-2.427 3.673-3.976 4.647-5.098 1.166-13.465-3.009-14.996 4.13-1.3-1.008-3.326-.359-4.962-.529-1.698 1.578-3.867 1.874-5.499 3.468-7.464 3.024-15.106 5.707-21.229 11.98-.36-.686-.72-1.805-1.893-1.41.236 1.224-1.145.322-1.399 1.289-1.737-.402-.688 1.551-.961 2.346-1.003 1.088-2.085 1.929-3.428 2.064-.797.839-1.843 1.466-1.396 2.785-4.507 3.857-9.352 6.93-14.567 9.07-4.596 1.972-8.108 6.465-12.238 9.428-.479 2.617-2.358 4.597-4.56 6.107-6.232 5.997-12.324 12.419-18.765 17.982-2.778 3.046-7.49 3.907-8.956 7.936-1.334 1.924-2.611 3.863-4.515 5.542-2.468 1.1-3.219 4.088-5.234 5.935-2.884 3.375-5.207 7.005-8.241 10.364-8.806 5.6-10.502 15.995-19.262 21.583-2.974 3.831-5.109 7.98-8.268 11.714-5.691 6.421-8.369 14.011-12.533 21.016v3.553c-.754 1.398-1.194 2.687 0 4.243v1.429l-.754.65v3.562l.754 1.41v7.093c-.435 3.312 2.823 5.142 2.724 8.275 3.07 4.636 7.992 8.626 11.946 12.862 4.536 1.888 8.106 5.857 13.369 5.69 2.087 3.048 6.295 1.11 9.353 1.655l1.292-.838c2.43-.279 3.976-2.644 6.439-2.748 1.532 0 3.657-.674 4.836.555 1.292-.262 3.676.77 3.676-1.372 5.988-2.266 11.7-6.489 15.61-12.193 1.486-1.811 3.807-3.381 3.268-6.029.437-.475 1.143-.899.858-1.701.396-.456.838-.839 1.502-.664 3.179-2.184 5.814-5.247 7.741-8.419 2.09-2.306 6.152-1.887 7.135-5.263.338-3.821 5.143-5.796 4.01-10.199 3.27-5.736 9.127-10.354 11.531-16.5 3.386-8.001 10.021-14.655 14.472-22.228a57.92 57.92 0 0 0 6.452-8.141l15.395-17.53c5.642-6.657 11.98-11.917 18.217-18.125 10.502-9.994 22.339-16.733 34.81-21.957 1.91-2.896 5.309-1.779 7.154-4.655 8.186 1.548 13.553-3.766 21.233-3.465 11.403-.381 37.941.659 57.657 14.062l1.549 1.485c3.364 2.903 6.881 5.331 10.458 7.795 2.985.301 4.79 3.56 7.691 4.125.758 1.192 2.098 2.144 2.248 3.593l3.944 4.18.86.097c5.879 5.033 11.698 10.158 17.304 15.85 3.599 4.449 8.661 8.264 9.531 13.849 4.905 2.838 6.442 8.307 9.753 12.453-.183 1.415 1.413 2.161 2.246 3.017.073 4.112 5.343 6.046 6.329 9.78.149 1.456-.099 3.075 1.485 3.879.78 2.084 3.514 2.249 4.526 4.18 1.23 1.076 1.165 2.707 1.126 4.26 3.517 6.591 8.408 12.601 11.152 19.531.251 3.226 2.512 5.554 4.412 8.116v1.364c1.027.506.148 1.824 1.421 2.205-.21 1.866 1.818 1.023 2.531 1.951l-1.082-2.899c-1.633-1.584-.611-4.308-3.01-5.515-.07-.785.23-1.686-.432-2.202-.826-6.298-6.77-10.435-7.268-16.905-.546-1.211-2.572-.574-2.22-2.333-1.263-.979-.463-2.932-.714-4.401.207-2.387-2.575-1.778-3.367-3.782-1.068-3.982-6.425-6.206-5.691-11.033-1.171-1.556-.485-4.425-3.058-4.815-.495-1.793-2.63-2.978-2.968-4.839-3.275-3.616-5.251-11.67-8.024-15.443-.99-1.878-3.128-3.286-2.744-5.69l-7.036-7.032c-1.024.235-.797-.95-.797-1.534-2.357-2.249-4.558-4.556-6.338-7.078v-2.767c-1.212-.02-2.676 2.818-3.555 2.246-1.628.104.877-5.435.546-5.937-4.916-.603-4.461-3.228-8.449-5.937-1.259-1.958-5.133-2.043-3.874-5.207-1.109-.524-.491-1.973-2.046-1.403-.553-1.2-1.324-.315-1.966 0-.355-.187-.256-.529-.256-.899-.442-1.142-2.21-.785-2.034-2.026-1.297-.708-.239-2.787-2.087-2.787-.229-1.378-3.592-2.282-4.49-3.465-2.886 1.18-2.676-2.367-2.821-4.279-1.382-1.452-8.671-4.786-9.901-6.318-2.992.589-4.958-3.457-7.287-4.698-1.942-.213-4.176-.252-5.963.608-.872-.858-2.027-1.095-2.771-2.253-.2-2.072-2.659-1.592-3.898-2.618-.957-.489-2.531.485-3.22-.816l-5-1.718c-1.338-1.275-3.328-.885-4.804-1.939-.589-.904-.98-2.011-2.246-2.205-.147-.729-3.659 2.869-3.51 2.082l-2.825-3.104c-.585.082-1.02-.109-1.421-.393-1.802.368-2.531-2.302-4.125-2.479-.036.419.15.984-.075 1.357h-9.818l-.65.446c-.705.545-1.775.46-2.239-.446.316-1.764-3.215.599-2.259 1.243-.835-.55-3.323-.206-4.299-.402-2.328-.356-3.147.947-5.396 2.055-.504.271-1.263.55-1.55 1.1-.317.669.497 1.803-.551 2.173 0 1.232-1.669.57-2.328.514v-.514c-.991-.05-1.94-.348-2.708-.836-4.461-.942-7.43 1.634-11.471 1.556-1.963 3.083-6.379 3.863-9.538 4.798-1.06.347-1.688 1.284-2.971 1.541-4.615 1.004-9.434 3.686-13.381 6.717-1.241.87-1.927 2.661-3.364 3.039-.655.17-1.326.08-1.826.291-.073 0-1.756.676-1.534.712-.998-.203-2.543.044-3.345.545-.737-.05-1.508-.293-2.027-.838l.519-.54c1.508-.17.544-2.387.834-3.584.553-.676 1.541-1.171 1.637-2.087 1.819-1.17 1.672-5.079 5.085-3.685 2.386-.533 4.869-.739 6.625-2.799 3.304-1.178 5.778-4.636 8.901-6.211 1.483-.739 11.081-2.706 10.352-5.098 1.236.628 1.589-1.108 2.782-.691.626.945 1.901 1.231 2.213 2.07 1.174.506 1.524-.926 2.574-.713.5-.666 1.633-1.173 1.522-2.072 1.218-.135 2.348.148 3.331.715.186 1.735 1.292-.383 2.171 0v-.417c0-.443.483-.288.73-.298.403-3.995 4.756-1.466 7.161-2.205-.502-.964 1.087-1.11.795-2.081h3.493c.987 1.156 2.722.526 4.079.676.435-.826 1.314-.633 2.065-.676.942-1.263 2.969-.458 4.413-.686.684.48 2.367-.574 2.874-1.493l9.203.943c1.473 1.701 4.304.126 6.048 1.408 5.301.022 10.098 1.446 14.569 3.715l2.865 2.062c1.865.734 3.995.79 5.531 2.072 8.043 1.768 14.41 7.684 21.567 11.478 4.014 3.55 7.466 4.9 11.332 8.581 4.148 3.61 8.304 7.647 11.551 11.801 7.504 6.363 15.004 13.875 20.842 21.576 2.273 2.937 3.171 3.402 4.343 5.808.299.924 2.451 6.172 4.265 6.596 1.662 3.795 4.857 8.011 6.906 11.746 3.85 4.851 6.021 11.527 10.34 15.782 0-3.831-4.254-10.851-5.442-16.236-.546-1.633-2.87-2.51-2.326-4.662-3.389-3.191-4.324-7.32-7.741-10.49.343-1.156-.498-1.827-.638-2.777-1.2-2.176-3.246-4.003-3.628-6.489-1.886-3.441-6.132-5.893-7.427-9.565-4.855-5.374-7.799-11.502-11.526-17.376l-1.002-.422c-3.575-1.764-7.474-7.975-7.87-7.563-1.988-.984-3.333-3.116-4.951-4.669-4.316-3.407-7.08-6.906-11.302-10.396-.63-2.309-3.161-2.576-4.683-3.838-4.017-2.765-8.785-3.342-12.007-7.624-1.596.144-2.804-.285-3.85-1.337-2.388-.407-4.016-2.629-6.403-2.978-1.99-1.767-4.439-2.419-6.823-3.073-1.945-2.093-3.57.95-5.981-.123-.925-.732-1.838-1.677-2.137-2.804-.565.8-1.215.371-1.732 0-2.676.141-4.881-.749-6.78-2.307-2.096.327-4.857-1.163-6.144 1.098l-.322-.562-5.49-.08c-2.391-1.869-4.944-.129-7.661-.727-2.785.511-5.86.45-8.72.937-5.401-.46-8.98 1.905-14.818 2.661-1.86.23-3.869-.332-6.087.526-2.567-4.488-.147-2.855.655-4.975.727-1.904-.321 1.551.034-.458h1.244c3.171 0 5.432-2.181 8.432-2.595 3.009-2.508 7.61-1.386 10.973-3.051 1.886 1.452 4.966 0 6.883 1.219 4.077-.061 8.87.836 12.432-1.054 1.623.111 3.966.608 5.891.509v.693c2.698-.274 5.104.315 7.452 1.17 3.34.545 6.767.982 9.528 3.107 2.831-.633 4.821.959 7.094 1.822 1.13.678 2.075 2.069 3.478 2.069 2.546 2.506 5.831 3.165 8.954 4.469 1.294 1.049 2.862 1.97 4.369 2.641-.444.25 1.72.417 1.314.582.152 1.992 2.729 1.415 2.783 3.339 1.799-.79 2.277 1.403 3.437 2.081 2.263-.356 3.367 1.483 4.429 3.044 5.317 4.715 7.686 6.358 13.036 10.955 5.551 6.645 13.833 12.128 18.217 19.313h1.408c3.591 2.556 3.405 6.625 5.031 9.964 1.954-.465 2.606 1.907 4.212 2.225.312 4.618 6.589 8.558 7.659 12.867 1.925 2.021 6.672 10.58 10.621 17.352 1.396 2.358 2.949 2.276 2.584-.019Z"/></g></svg>