<svg xmlns="http://www.w3.org/2000/svg" width="676" height="758" overflow="hidden"><defs><clipPath id="a"><path d="M40-1h676v758H40z"/></clipPath></defs><g fill="#FFF" fill-rule="evenodd" clip-path="url(#a)" transform="translate(-40 1)"><path d="M714.76.834c.158-.47.241-.834.241-.834-175.27 174.424-388.042 211.693-388.042 211.693 0 122.683-19.764 214.938-48.959 284.307C576.138 338.56 698.105 44.183 714.76.834ZM40 703.095 96.692 756C361.107 710.719 512.896 550.983 600 390c-23.838 12.084-48.763 23.962-74.369 35.266-100.443 109.649-231.756 196.28-376.367 246.677 0-.006-44.937 16.051-109.264 31.152ZM602.093 372.02l9.758-5.68C637.248 315.995 656.459 266.041 671 220c-27.661 50.978-67.546 114.328-122 178.001 18.249-8.485 36.094-17.181 53.093-25.981Z"/><path d="M332 482c45.935-14.289 113.219-37.456 185.105-69.025 79.8-87.656 131.256-177.551 160.414-237.587l14.339-30.734A1041.417 1041.417 0 0 0 710.001 50c-16.274 35.16-42.36 85.547-79.906 141.575C572.008 278.168 475.098 394.432 332 482ZM492.001 439c-115.537 47.844-212.604 73.012-217.071 74.195l-5.943 1.376C239.295 577.357 201.845 619.627 166 648c122.661-43.61 232.09-113.765 326.001-209Z"/></g></svg>